<?xml version="1.0" encoding="UTF-8" standalone="no"?>
<!DOCTYPE svg PUBLIC "-//W3C//DTD SVG 1.1//EN" "http://www.w3.org/Graphics/SVG/1.1/DTD/svg11.dtd">
<svg width="100%" height="100%" viewBox="0 0 100 100" version="1.1" xmlns="http://www.w3.org/2000/svg" xmlns:xlink="http://www.w3.org/1999/xlink" xml:space="preserve" style="fill-rule:evenodd;clip-rule:evenodd;stroke-linecap:round;stroke-linejoin:round;stroke-miterlimit:1.41421;">
    <path d="M69.27,10.749C76.292,10.749 81.992,16.45 81.992,23.471L81.992,73.222C81.992,80.244 76.292,85.945 69.27,85.945L28.793,85.945C21.771,85.945 16.07,80.244 16.07,73.222L16.07,68.081C17.168,68.523 18.325,68.76 19.52,68.76C26.623,68.76 32.391,60.39 32.391,50.081C32.391,39.772 26.623,31.402 19.52,31.402C18.325,31.402 17.168,31.639 16.07,32.082L16.07,23.471C16.07,16.45 21.771,10.749 28.793,10.749L69.27,10.749Z" style="fill:black;stroke-width:1px;stroke:rgb(248,0,0);"/>
</svg>
